<?xml version="1.0" encoding="iso-8859-1"?>
<!-- Generator: Adobe Illustrator 18.0.0, SVG Export Plug-In . SVG Version: 6.00 Build 0)  -->
<!DOCTYPE svg PUBLIC "-//W3C//DTD SVG 1.1//EN" "http://www.w3.org/Graphics/SVG/1.1/DTD/svg11.dtd">
<svg version="1.1" id="Capa_1" xmlns="http://www.w3.org/2000/svg" xmlns:xlink="http://www.w3.org/1999/xlink" x="0px" y="0px"
	 viewBox="0 0 395 395" style="enable-background:new 0 0 395 395;" xml:space="preserve">
<g>
	<path d="M214.042,182.229v-54.961c9.091,1.389,18.115,4.289,24.502,8.065c6.4,3.773,14.65,1.765,18.586-4.546l0.431-0.693
		c1.942-3.118,2.555-6.894,1.684-10.462c-0.863-3.571-3.133-6.646-6.284-8.528c-10.727-6.407-24.915-10.898-38.918-12.528V85.725
		c0-7.56-6.125-13.687-13.687-13.687h-1.091c-7.561,0-13.687,6.127-13.687,13.687v13.591c-30.434,4.869-49.52,23.159-49.52,48.543
		c0,35.612,28.028,48.423,49.52,55.462v60.732c-12.975-2.422-25.742-8.569-34.061-16.785c-5.368-5.294-13.993-5.253-19.311,0.081
		l-0.72,0.72c-2.59,2.6-4.029,6.145-3.984,9.815c0.039,3.68,1.559,7.181,4.21,9.726c14.012,13.416,33.868,22.593,53.866,25.243
		v16.422c0,7.561,6.126,13.688,13.687,13.688h1.091c7.562,0,13.687-6.127,13.687-13.688v-16.721
		c32.842-4.952,53.456-24.78,53.456-52.454C267.778,202.463,238.926,190.01,214.042,182.229z M185.578,172.879
		c-15.805-6.58-21.055-13.443-21.055-25.021c0-11.92,11.196-17.186,21.055-19.503V172.879z M214.042,263.56V212.31
		c17.034,6.215,25.117,12.945,24.993,27.697C239.035,254.974,225.374,261.08,214.042,263.56z"/>
	<path d="M313.002,0H82C36.785,0,0,36.784,0,81.998v230.993C0,358.211,36.785,395,82,395h231.002
		C358.216,395,395,358.211,395,312.991V81.998C395,36.784,358.216,0,313.002,0z M380,312.991C380,349.94,349.944,380,313.002,380H82
		c-36.944,0-67-30.06-67-67.009V81.998C15,45.056,45.056,15,82,15h231.002C349.944,15,380,45.056,380,81.998V312.991z"/>
</g>
<g>
</g>
<g>
</g>
<g>
</g>
<g>
</g>
<g>
</g>
<g>
</g>
<g>
</g>
<g>
</g>
<g>
</g>
<g>
</g>
<g>
</g>
<g>
</g>
<g>
</g>
<g>
</g>
<g>
</g>
</svg>
