<?xml version="1.0" encoding="iso-8859-1"?>
<!-- Generator: Adobe Illustrator 18.1.1, SVG Export Plug-In . SVG Version: 6.00 Build 0)  -->
<svg version="1.1" id="Capa_1" xmlns="http://www.w3.org/2000/svg" xmlns:xlink="http://www.w3.org/1999/xlink" x="0px" y="0px"
	 viewBox="0 0 466.044 466.044" style="enable-background:new 0 0 466.044 466.044;" xml:space="preserve">
<g>
	<g>
		<path style="fill:#010002;" d="M280.631,466.044c-128.488,0-233.022-104.525-233.022-233.022C47.609,104.533,152.143,0,280.631,0
			c41.228,0,81.798,10.974,117.336,31.718l20.468,11.957l-21.622,9.697c-74.945,33.62-123.359,108.354-123.359,190.396
			c0,73.848,39.692,142.917,103.607,180.243l20.46,11.949l-21.614,9.697C345.765,459.183,313.706,466.044,280.631,466.044z
			 M280.631,24.394c-115.036,0-208.636,93.592-208.636,208.636s93.592,208.636,208.636,208.636c21.858,0,43.212-3.341,63.752-9.966
			c-59.339-43.61-95.324-113.589-95.324-187.916c0-83.448,44.837-160.117,116.052-201.507
			C338.612,30.523,309.813,24.394,280.631,24.394z"/>
	</g>
</g>
<g>
</g>
<g>
</g>
<g>
</g>
<g>
</g>
<g>
</g>
<g>
</g>
<g>
</g>
<g>
</g>
<g>
</g>
<g>
</g>
<g>
</g>
<g>
</g>
<g>
</g>
<g>
</g>
<g>
</g>
</svg>
